<?xml version="1.0" encoding="UTF-8"?>
<svg width="14px" height="16px" viewBox="0 0 14 16" version="1.1" xmlns="http://www.w3.org/2000/svg" xmlns:xlink="http://www.w3.org/1999/xlink">
    <!-- Generator: Sketch 39.1 (31720) - http://www.bohemiancoding.com/sketch -->
    <title>exam-topic-icon</title>
    <desc>Created with Sketch.</desc>
    <defs></defs>
    <g id="模拟考试-10" stroke="none" stroke-width="1" fill="none" fill-rule="evenodd">
        <g id="模拟考试-理论模拟" transform="translate(-46.000000, -291.000000)" fill="#9E9E9E">
            <g id="exam-topic-icon" transform="translate(46.000000, 291.000000)">
                <path d="M9.99511598,0.00668171557 L2.00853093,0.00668171557 C0.906373711,0.00668171557 0.0118891753,0.901200903 0.0118891753,2.00442438 L0.0118891753,13.9955937 C0.0118891753,15.0988172 0.906373711,15.9933363 2.00853093,15.9933363 L11.9917577,15.9933363 C13.0936263,15.9933363 13.9881108,15.0988172 13.9881108,13.9955937 L13.9881108,4.00299774 L9.99511598,0.00668171557 L9.99511598,0.00668171557 Z M12.9899253,13.9955756 C12.9899253,14.5467991 12.5423943,14.9950158 11.9917577,14.9950158 L2.00853093,14.9950158 C1.45702835,14.9950158 1.0103634,14.5467991 1.0103634,13.9955756 L1.0103634,2.00440632 C1.0103634,1.4523702 1.45704639,1.00527314 2.00853093,1.00527314 L8.4828634,1.00527314 C8.47449227,2.20223928 8.4973866,4.00297968 8.4973866,4.00297968 C8.4973866,5.10703386 9.39131186,5.50183296 10.4940284,5.50183296 L12.9899072,5.50183296 L12.9899072,13.9955576 L12.9899253,13.9955756 Z M10.4940464,4.50269977 C9.94254381,4.50269977 9.49587887,4.05531377 9.49587887,3.50325959 L9.49587887,1.00525508 L12.9899253,4.50268172 L10.4940464,4.50268172 L10.4940464,4.50269977 Z" id="Shape"></path>
                <path d="M9.99518814,8.49988262 L4.00499227,8.49988262 C3.72993557,8.49988262 3.50631443,8.72288939 3.50631443,8.99904289 C3.50631443,9.27519639 3.72993557,9.49903386 4.00499227,9.49903386 L9.99518814,9.49903386 C10.2702629,9.49903386 10.4935773,9.27517833 10.4935773,8.99904289 C10.4935773,8.72290745 10.2702629,8.49988262 9.99518814,8.49988262 Z" id="Shape"></path>
                <path d="M9.99518814,10.9979233 L4.00499227,10.9979233 C3.72993557,10.9979233 3.50631443,11.22093 3.50631443,11.4970835 C3.50631443,11.773237 3.72993557,11.9970745 4.00499227,11.9970745 L9.99518814,11.9970745 C10.2702629,11.9970745 10.4935773,11.773219 10.4935773,11.4970835 C10.4935773,11.2209481 10.2702629,10.9979233 9.99518814,10.9979233 Z" id="Shape"></path>
            </g>
        </g>
    </g>
</svg>