<?xml version="1.0" encoding="UTF-8"?>
<svg width="84px" height="80px" viewBox="0 0 84 80" version="1.1" xmlns="http://www.w3.org/2000/svg" xmlns:xlink="http://www.w3.org/1999/xlink">
    <!-- Generator: Sketch 39.1 (31720) - http://www.bohemiancoding.com/sketch -->
    <title>exam-sim-icon</title>
    <desc>Created with Sketch.</desc>
    <defs></defs>
    <g id="模拟考试-10" stroke="none" stroke-width="1" fill="none" fill-rule="evenodd">
        <g id="模拟考试-理论模拟" transform="translate(-212.000000, -166.000000)" fill="#9E9E9E">
            <g id="exam-sim-icon" transform="translate(212.000000, 166.000000)">
                <path d="M66.2478959,19.1711944 C60.2604903,19.1711944 55.3900577,24.1345466 55.3900577,30.2397421 C55.3900577,36.3427783 60.2605854,41.3071632 66.2478959,41.3071632 C72.2359673,41.3071632 77.1072559,36.3427783 77.1072559,30.2397421 C77.1071609,24.1336077 72.2359673,19.1711944 66.2478959,19.1711944 Z M64.678065,31.8370833 L64.678065,22.171361 L67.8191535,22.171361 L67.8191535,28.6370496 L73.870859,28.6370496 L73.870859,31.8370833 L64.678065,31.8370833 Z M66.2402864,12.849703 C58.2955384,12.849703 51.5960779,18.3767012 49.6460596,25.8589054 L40.9357051,25.8589054 C39.2888286,25.8589054 37.9513714,27.2244609 37.9513714,28.9020683 L37.9513714,73.5260501 C37.9513714,75.2060044 39.2888285,76.5711845 40.9357051,76.5711845 L65.5501088,76.5711845 C67.1963196,76.5711845 68.535679,75.2048779 68.535679,73.5260501 L68.5356789,47.6954959 C76.9211096,46.5476445 83.4107394,39.2097314 83.4107394,30.3532411 C83.4101687,20.6991595 75.7088281,12.849703 66.2402864,12.849703 Z M64.9534322,68.6597682 L41.5320011,68.6597682 L41.5320011,29.5103067 L49.0901888,29.5103067 C49.0779185,29.789595 49.0695481,30.0701037 49.0695481,30.353241 C49.0695481,35.7047805 51.4405596,40.4977434 55.1647227,43.7097935 L45.7019832,43.7097935 L45.7019832,46.2198209 L59.0180562,46.2198209 C60.8454672,47.087727 62.8463738,47.6411403 64.9533371,47.8016723 L64.9533371,68.6597682 L64.9534322,68.6597682 Z M66.2478959,45.3080738 C58.0963609,45.3080738 51.466622,38.5478886 51.466622,30.238991 C51.466622,21.9282158 58.0957902,15.1668102 66.2478959,15.1668102 C74.3997163,15.1668102 81.0313576,21.9275587 81.0313576,30.238991 C81.0313575,38.5478886 74.4006674,45.3080738 66.2478959,45.3080738 Z M56.5618189,49.8346097 L43.2455555,49.8346097 L43.2455555,52.3453881 L56.5619139,52.3453881 L56.5619139,49.8346097 L56.5618189,49.8346097 Z M43.2455555,58.4457958 L60.7065946,58.4457958 L60.7065946,55.9330459 L43.2455555,55.9330459 L43.2455555,58.4457958 Z M16.4819561,16.556117 C20.9622138,16.556117 24.5991534,12.849703 24.5991534,8.27923198 C24.5991534,3.70782222 20.9622138,0 16.4819561,0 C11.9923768,0 8.35867115,3.70791607 8.35867115,8.27923198 C8.35857606,12.849703 11.9923768,16.556117 16.4819561,16.556117 Z M21.8785825,18.5711234 C21.745417,18.4889798 21.6000764,18.4263629 21.4600624,18.3655296 C20.553681,17.7497811 19.5362967,17.2978504 18.4995083,17.0370561 L16.4829073,19.113459 L14.51767,17.0160273 C14.5108215,17.0160273 14.5044486,17.0172477 14.4985513,17.0172477 C13.4588142,17.2700623 12.4382909,17.7198338 11.5294365,18.3326721 C11.3692575,18.4008278 11.2045127,18.4754612 11.0492798,18.5719682 C4.74370382,22.513454 1.12321957,25.6300298 0.0061513165,43.8722033 C-0.101712734,45.6423749 1.22195222,47.1686503 2.95586192,47.2799901 C3.0253933,47.2841207 3.0919761,47.2882514 3.15675153,47.2882514 C4.80838407,47.2882514 6.19663419,45.9745167 6.30250078,44.2737214 C6.68002496,38.1161417 7.2911594,34.1229292 8.16995651,31.3705077 L8.16995651,42.5055212 C8.16995651,43.3714557 8.3327989,44.175055 8.62167285,44.9181028 C8.60131753,45.0866146 8.58115247,45.2565345 8.58115247,45.4250462 L8.58800097,76.2012096 C8.58800097,78.2986413 10.2548524,79.9999999 12.3136859,79.9999999 C14.3703317,79.9999999 16.0395612,78.2986413 16.0395612,76.2012096 L16.0358515,49.7896419 C16.1839506,49.798091 16.3332862,49.8109523 16.4833827,49.8109523 C16.5101109,49.8109523 16.5378854,49.8068217 16.5653746,49.8041931 L16.5653746,76.2012097 C16.5653746,78.2986414 18.2328919,80 20.2922961,80 C22.3489419,80 24.017981,78.2986414 24.017981,76.2012097 L24.0199785,45.6160889 C24.5070788,44.6939211 24.7931944,43.6507442 24.7931944,42.5055212 L24.7931945,31.4649493 C25.6541094,34.2145545 26.2561125,38.1839219 26.6292613,44.2743785 C26.7321792,45.9749862 28.1236633,47.2881575 29.7720619,47.2881575 C29.8391202,47.2881575 29.9078907,47.2852473 29.9698126,47.2806473 C31.7093343,47.1691197 33.029575,45.6437831 32.921711,43.8728606 C31.8028355,25.6300298 28.1828269,22.513454 21.8785825,18.5711234 Z M16.4974603,35.4967459 L16.459413,35.4967459 L14.5020706,32.7648839 L16.459413,19.4192212 L16.4974603,19.4192212 L18.4560393,32.7648839 L16.4974603,35.4967459 Z" id="Shape"></path>
            </g>
        </g>
    </g>
</svg>