<?xml version="1.0" encoding="UTF-8"?>
<svg width="16px" height="16px" viewBox="0 0 16 16" version="1.1" xmlns="http://www.w3.org/2000/svg" xmlns:xlink="http://www.w3.org/1999/xlink">
    <!-- Generator: Sketch 39.1 (31720) - http://www.bohemiancoding.com/sketch -->
    <title>exam-time-icon</title>
    <desc>Created with Sketch.</desc>
    <defs></defs>
    <g id="模拟考试-10" stroke="none" stroke-width="1" fill="none" fill-rule="evenodd">
        <g id="模拟考试-理论模拟" transform="translate(-194.000000, -291.000000)" fill="#9E9E9E">
            <g id="exam-time-icon" transform="translate(194.000000, 291.000000)">
                <path d="M8,0 C3.58857143,0 0,3.58857143 0,8 C0,12.4114286 3.58857143,16 8,16 C12.4114286,16 16,12.4114286 16,8 C16,3.58857143 12.4114286,0 8,0 Z M8,14.852 C4.22171429,14.852 1.148,11.7777143 1.148,8 C1.148,4.22171429 4.22171429,1.148 8,1.148 C11.7777143,1.148 14.852,4.22171429 14.852,8 C14.852,11.7777143 11.7777143,14.852 8,14.852 Z M10.8565714,8 L8,8 L8,4.00114286 C8,3.684 7.74571429,3.42742857 7.42857143,3.42742857 C7.11142857,3.42742857 6.85714286,3.68457143 6.85714286,4.00114286 L6.85714286,8.57142857 C6.85714286,8.88857143 7.112,9.14285714 7.42857143,9.14285714 L10.8565714,9.14285714 C11.1737143,9.14285714 11.4302857,8.88857143 11.4302857,8.57142857 C11.4302857,8.25428571 11.1737143,8 10.8565714,8 Z" id="Shape"></path>
            </g>
        </g>
    </g>
</svg>