<?xml version="1.0" encoding="UTF-8"?>
<svg width="72px" height="80px" viewBox="0 0 72 80" version="1.1" xmlns="http://www.w3.org/2000/svg" xmlns:xlink="http://www.w3.org/1999/xlink">
    <!-- Generator: Sketch 39.1 (31720) - http://www.bohemiancoding.com/sketch -->
    <title>exam-order-icon</title>
    <desc>Created with Sketch.</desc>
    <defs></defs>
    <g id="模拟考试-10" stroke="none" stroke-width="1" fill="none" fill-rule="evenodd">
        <g id="模拟考试-理论模拟" transform="translate(-64.000000, -166.000000)" fill="#9E9E9E">
            <g id="exam-order-icon" transform="translate(64.000000, 166.000000)">
                <path d="M4.81427865,69.2525066 C4.55855845,68.872213 4.36812855,68.4430247 4.24298888,67.9703741 C4.11784921,67.4922909 4.0525589,67.0033421 4.0525589,66.4980951 L4.0525589,27.3169979 L24.0619842,11.8814558 C24.3122635,11.5283262 24.4754892,11.2295241 24.5407795,10.8818272 C24.6006288,10.5341302 24.5734247,10.1864333 24.442844,9.83873641 C24.3177044,9.49103945 24.1272744,9.21940125 23.8769951,9.02925453 L18.0661617,3.99308188 L54.8810285,3.99308188 C56.4044681,3.99308188 57.7048325,4.53092555 58.7821218,5.60661289 C59.8594111,6.68230023 60.3980558,7.98073094 60.3980558,9.501905 L60.3980558,26.9638683 L64.3970844,23.0685762 L64.3970844,9.501905 C64.3970844,6.90504359 63.4449348,4.65587914 61.5406355,2.75441156 C61.3502055,2.56426484 61.1597755,2.39041633 60.9693455,2.23286617 C60.7789156,2.07531602 60.5884858,1.90146758 60.3980558,1.71132078 L59.6363362,1.33102727 C59.4459062,1.14088055 59.2228311,1.01592695 58.9725518,0.95073375 L58.210832,0.570440234 C57.9551118,0.510679844 57.6885099,0.429188359 57.4001446,0.331398594 C57.1117792,0.239041641 56.8451774,0.173848438 56.5894572,0.141251875 C56.333737,0.108655313 56.067135,0.0760586719 55.7787698,0.0488948438 C55.5012861,0.0162982813 55.1965982,0 54.8810285,0 L12.9048304,0 L12.5239705,0 L12.3335406,0.0923570312 C12.1159064,0.157550156 12.0016485,0.201012266 11.9091539,0.233608906 C11.8112185,0.271638203 11.7296057,0.315100312 11.6697563,0.380293516 L11.1964019,0.95073375 C11.0331762,1.17347711 11.005972,1.2984307 11.005972,1.4233843 L0.249401084,28.0069589 C0.118820632,28.2622989 0.0589711858,28.5176388 0.0589711858,28.767546 L0.0589711858,66.4980951 C0.0589711858,69.0949564 0.994798259,71.3278225 2.86645248,73.1966936 C4.73810671,75.0655645 6.97429823,76 9.57502698,76 L20.1411679,76 L21.5666719,72.0123509 L9.57502698,72.0123509 C8.05158755,72.0123509 6.7512231,71.4745072 5.67393378,70.393387 C5.35292335,70.0130936 5.06999885,69.6328002 4.81427865,69.2525066 Z M14.8031221,32 L48.3125561,32 L48.3125561,36 L14.8031221,36 L14.8031221,32 L14.8031221,32 Z M40.270292,41.3333334 L40.270292,45.3333334 L14.8031221,45.3333334 L14.8031221,41.3333334 L40.270292,41.3333334 Z M30.8876504,50.6666666 L30.8876504,54.6666666 L14.8031221,54.6666666 L14.8031221,50.6666666 L30.8876504,50.6666666 Z M14.8031221,22.6666666 L53.6740656,22.6666666 L53.6740656,26.6666666 L14.8031221,26.6666666 L14.8031221,22.6666666 L14.8031221,22.6666666 L14.8031221,22.6666666 Z M34.154066,59.0780612 L59.2033992,34.6588043 C59.6352827,34.2414415 60.1422763,33.9158066 60.7290745,33.6819002 C61.3158726,33.4479934 61.9073651,33.3333334 62.4941633,33.3333334 C63.0809613,33.3333334 63.6630651,33.4525798 64.2357802,33.6864866 C64.8084952,33.9249795 65.3201831,34.2506143 65.7755384,34.667977 L69.7375995,38.5480753 C70.6436158,39.4378379 71.0989712,40.515643 71.0989712,41.7814905 C71.0989712,43.0473383 70.6389216,44.1251434 69.7329051,45.0103195 L44.619287,69.4882848 L34.154066,59.0780612 Z M31.272397,61.8872466 L27.2252476,65.8325963 L23.4462676,78.1562653 L22.8453863,80 L37.9519176,75.986896 L41.7373874,72.2972407 L31.272397,61.8872466 Z M59.8066636,70.2531976 C58.6687779,71.3557817 57.2952694,71.9070738 55.686138,71.9070738 L46.3761752,71.9070738 L44.291424,76 L55.686138,76 C58.4331551,76 60.7951299,75.0421996 62.7720626,73.1265988 C64.7489954,71.210998 65.7374618,68.9223005 65.7374618,66.2605064 L65.7374618,54.6666666 L61.5134921,58.6593579 L61.5134921,66.2605064 C61.5134921,67.8197164 60.9445493,69.1506134 59.8066636,70.2531976 Z" id="Shape"></path>
            </g>
        </g>
    </g>
</svg>