<?xml version="1.0" encoding="UTF-8"?>
<svg width="16px" height="16px" viewBox="0 0 16 16" version="1.1" xmlns="http://www.w3.org/2000/svg" xmlns:xlink="http://www.w3.org/1999/xlink">
    <!-- Generator: Sketch 39.1 (31720) - http://www.bohemiancoding.com/sketch -->
    <title>exam-topic-wrong-icon</title>
    <desc>Created with Sketch.</desc>
    <defs></defs>
    <g id="模拟考试-10" stroke="none" stroke-width="1" fill="none" fill-rule="evenodd">
        <g id="模拟考试-理论模拟" transform="translate(-32.000000, -368.000000)" fill="#9E9E9E">
            <g id="exam-topic-wrong-icon" transform="translate(32.000000, 368.000000)">
                <path d="M14.917346,13.8667526 C14.917346,14.4554148 14.2811383,14.933158 13.4970656,14.933158 L3.55503133,14.933158 C2.77101227,14.933158 2.13475093,14.4554148 2.13475093,13.8667526 L2.13475093,2.13615744 C2.13475093,1.54749169 2.77105516,1.06975921 3.55503133,1.06975921 L13.4970656,1.06975921 C14.2811383,1.06975921 14.917346,1.54749169 14.917346,2.13615744 L14.917346,13.8667526 L14.917346,13.8667526 Z M0.00428388827,2.91175687 L0.00428388827,4.36594409 L1.06949061,4.36594409 L1.06949061,7.27434713 L0.00428388827,7.27434713 L0.00428388827,8.72861305 L1.06949061,8.72861305 L1.06949061,11.6369696 L0.00428388827,11.6369696 L0.00428388827,13.0911032 L1.06949061,13.0911032 C1.06949061,15.9995491 1.06949061,15.9995491 3.19995409,15.9995491 L13.8522358,15.9995491 C15.9826492,15.9995491 15.9826492,15.9995491 15.9826492,13.0911032 L15.9826492,2.91175687 C15.9826492,0.00335740492 15.9826492,0.00335740492 13.8522357,0.00335740492 L3.19995407,0.00335740492 C1.06949059,0.00335740492 1.06949059,0.00335740492 1.06949059,2.91175687 L0.00428388827,2.91175687 Z M12.2542917,2.93598028 L12.7869361,2.13615746 L13.8522393,2.13615746 L12.7869361,3.7358031 L13.8522393,5.33540224 L12.7869361,5.33540224 L12.2542917,4.53562591 L11.7217222,5.33540224 L10.6565262,5.33540224 L11.7217222,3.7358031 L10.6565262,2.13615746 L11.7217222,2.13615746 L12.2542917,2.93598028 Z M12.2542917,7.20163402 L12.7869361,6.4018112 L13.8522393,6.4018112 L12.7869361,8.00145684 L13.8522393,9.60114541 L12.7869361,9.60114541 L12.2542917,8.8012761 L11.7217222,9.60114541 L10.6565262,9.60114541 L11.7217222,8.00145684 L10.6565262,6.4018112 L11.7217222,6.4018112 L12.2542917,7.20163402 L12.2542917,7.20163402 Z M12.2542917,11.4672377 L12.7869361,10.6674614 L13.8522393,10.6674614 L12.7869361,12.267107 L13.8522393,13.8667526 L12.7869361,13.8667526 L12.2542917,13.0669727 L11.7217222,13.8667526 L10.6565262,13.8667526 L11.7217222,12.267107 L10.6565262,10.6674614 L11.7217222,10.6674614 L12.2542917,11.4672377 L12.2542917,11.4672377 Z M9.21087399,3.2025986 L4.64559562,3.2025986 C4.43560347,3.2025986 4.26517154,3.44147021 4.26517154,3.73580308 C4.26517154,4.0306725 4.43560347,4.26900755 4.64559562,4.26900755 L9.21087399,4.26900757 C9.42087687,4.26900757 9.5913088,4.03067252 9.5913088,3.7358031 C9.5913088,3.44147021 9.42087685,3.2025986 9.21087399,3.2025986 Z M9.21087399,11.7339383 L4.64559562,11.7339383 C4.43560347,11.7339383 4.26517154,11.9722376 4.26517154,12.267107 C4.26517154,12.5619764 4.43560347,12.8003473 4.64559562,12.8003473 L9.21087399,12.8003473 C9.42087687,12.8003473 9.5913088,12.5619764 9.5913088,12.267107 C9.5913088,11.9722376 9.42087685,11.7339383 9.21087399,11.7339383 Z M9.21087399,7.46825235 L4.64559562,7.46825235 C4.43560347,7.46825235 4.26517154,7.70712396 4.26517154,8.00145682 C4.26517154,8.29636918 4.43560347,8.53465058 4.64559562,8.53465058 L9.21087399,8.5346506 C9.42087687,8.5346506 9.5913088,8.2963692 9.5913088,8.00145684 C9.5913088,7.70712396 9.42087685,7.46825235 9.21087399,7.46825235 Z" id="Shape"></path>
            </g>
        </g>
    </g>
</svg>