<?xml version="1.0" encoding="UTF-8"?>
<svg width="26px" height="20px" viewBox="0 0 26 20" version="1.1" xmlns="http://www.w3.org/2000/svg" xmlns:xlink="http://www.w3.org/1999/xlink">
    <!-- Generator: Sketch 39.1 (31720) - http://www.bohemiancoding.com/sketch -->
    <title>nav-icon-video</title>
    <desc>Created with Sketch.</desc>
    <defs>
        <path d="M9.29428417,5.62563672 C9.53914137,5.13592232 9.94149715,5.14664998 10.1809905,5.62563672 L13.2942842,11.852224 C13.5391414,12.3419384 13.284601,12.7389304 12.7406072,12.7389304 L6.73466748,12.7389304 C6.18402294,12.7389304 5.94149715,12.3312108 6.18099052,11.852224 L9.29428417,5.62563672 Z" id="path-1"></path>
        <mask id="mask-2" maskContentUnits="userSpaceOnUse" maskUnits="objectBoundingBox" x="0" y="0" width="7.29880354" height="7.47656771" fill="white">
            <use xlink:href="#path-1"></use>
        </mask>
    </defs>
    <g id="扶뒬못-1" stroke="none" stroke-width="1" fill="none" fill-rule="evenodd">
        <g id="扶뒬못" transform="translate(-212.000000, -598.000000)">
            <g id="nav-icon-video" transform="translate(213.000000, 599.000000)">
                <path d="M21.9007516,2.27314223 L18.1496555,4.99994662 C17.6986514,5.32779749 17.3330403,5.14146809 17.3330403,4.60255317 L17.3330403,3.46174913 C17.3330403,1.55340515 15.837194,0 13.9995605,0 L3.33347985,0 C1.49584634,0 0,1.55340515 0,3.46174913 L0,14.5382509 C0,16.4465949 1.49584634,18 3.33347985,18 L13.9995605,18 C15.837194,18 17.3330403,16.4465949 17.3330403,14.5382509 L17.3330403,13.3980331 C17.3330403,12.8509891 17.691461,12.668157 18.1496555,13.0013447 L21.9007516,15.7290487 C22.1296646,15.8955633 22.396554,15.979916 22.6655532,15.979916 C22.875478,15.979916 23.0875126,15.9273325 23.281614,15.8232609 C23.7246714,15.584444 24,15.1133832 24,14.5952164 L24,3.40697462 C23.9989451,2.88880774 23.7246714,2.41884243 23.2805591,2.17893007 C22.8396114,1.9401132 22.3089974,1.97626438 21.9007516,2.27314223 Z" id="Shape" stroke="#FFFFFF"></path>
                <use id="Triangle" stroke="#FAFAFA" mask="url(#mask-2)" stroke-width="2" transform="translate(9.738284, 9.000647) rotate(90.000000) translate(-9.738284, -9.000647) " xlink:href="#path-1"></use>
            </g>
        </g>
    </g>
</svg>